<svg width="126" height="28" fill="none" xmlns="http://www.w3.org/2000/svg"><g clip-path="url(#a)"><g clip-path="url(#b)"><path d="M10.7561 21.2703c5.9404 0 10.756-4.7615 10.756-10.6351C21.5121 4.76151 16.6965 0 10.7561 0 4.81565 0 0 4.76151 0 10.6352c0 5.8736 4.81565 10.6351 10.7561 10.6351Z" fill="#2CA01C"/><path d="M7.16797 6.49936c-2.31136 0-4.18292 1.85286-4.18292 4.13594 0 2.2853 1.87156 4.1359 4.18292 4.1359h.59755V13.235h-.59755c-1.45087 0-2.62926-1.1652-2.62926-2.5997 0-1.4346 1.17839-2.59977 2.62926-2.59977h1.43652V16.071c0 .8484.69555 1.5362 1.55371 1.5362V6.49936H7.16797Zm7.17383 8.27174c2.3114 0 4.1829-1.8529 4.1829-4.1359 0-2.28538-1.8715-4.1359-4.1829-4.1359h-.5975v1.53623h.5975c1.4509 0 2.6293 1.16512 2.6293 2.59967 0 1.4346-1.1784 2.5997-2.6293 2.5997h-1.4365V5.19947c0-.84845-.6955-1.53619-1.5537-1.53619V14.7711h2.9902Zm23.5963-9.0209c0 1.19585.9681 2.07033 2.1966 2.07033 1.2286 0 2.199-.87208 2.199-2.07033V3.00632h-1.1903v2.60441c0 .64518-.435 1.0777-1.0111 1.0777-.5736 0-1.011-.43252-1.011-1.0777V3.00632h-1.1904l.0072 2.74388Zm7.5788-1.64493h1.4198v3.61598h1.1903V4.10527h1.4198V3.00396h-4.0299v1.10131Zm-.7688-1.10131h-1.1907v4.71729h1.1907V3.00396ZM33.1287 4.10527h1.4197v3.61598h1.1904V4.10527h1.4198V3.00396h-4.0323v1.10131h.0024Zm-6.245-1.10131H25.693v4.71729h1.1907V3.00396Zm5.6183 1.97576c0-1.19586-.968-2.0703-2.199-2.0703-1.2286 0-2.199.87208-2.199 2.0703v2.74387h1.1903V5.1192c0-.64521.4374-1.0777 1.0111-1.0777.5736 0 1.0111.43249 1.0111 1.0777v2.60439h1.1903l-.0048-2.74387Zm44.3847 5.11668c-1.1685 0-2.0267.5057-2.8397 1.2573h-.0476V5.31527h-2.5527V19.4978h2.4428v-1.2927h.038c.5765.9335 1.7188 1.5503 2.9069 1.5503 2.6365 0 4.6347-2.0466 4.6347-4.8661-.0024-2.777-1.9768-4.7929-4.5824-4.7929Zm-.5016 2.1199c1.6516 0 2.4736 1.3849 2.4736 2.673 0 1.3471-.8962 2.7084-2.4736 2.7084-1.5394 0-2.46-1.359-2.46-2.673 0-1.3022.9397-2.7084 2.46-2.7084Zm-19.8896.0378c.6621 0 1.4986.3286 1.8261.7894l1.6466-1.6213c-.7957-.8295-2.0672-1.3258-3.4727-1.3258-2.8611 0-4.9406 2.0301-4.9406 4.8284 0 2.8431 2.0532 4.8283 4.9956 4.8283 1.4007 0 2.6938-.4041 3.4588-1.2195l-1.6016-1.6993c-.3705.4443-1.145.761-1.8405.761-1.5537 0-2.3377-1.3731-2.3377-2.7013.0024-1.3258.851-2.6399 2.266-2.6399ZM114.75 10.354h-3.291l-3.299 3.7932h-.054V5.31527h-2.555V19.4955h2.555v-4.5093h.054l3.421 4.5093h3.361l-3.975-4.9962 3.783-4.1453Zm-44.2643 0h-3.2939l-3.2962 3.7932h-.0576V5.31527h-2.5527V19.4955h2.5527v-4.5093h.0576l3.4205 4.5093h3.3604l-3.975-4.9962 3.7842-4.1453Zm-38.531 4.5708c0 1.314-.9203 2.6729-2.4595 2.6729-1.58 0-2.4764-1.3637-2.4764-2.7084 0-1.2881.8247-2.673 2.4764-2.673 1.5177 0 2.4595 1.4062 2.4595 2.7085Zm-7.5723-.0355c0 2.8195 1.8525 4.8661 4.4865 4.8661 1.1975 0 2.321-.6263 2.9735-1.3565h.0382v5.6012h2.5528V10.354h-2.4596v1.1604h-.0573c-.3609-.3947-1.3386-1.418-2.9257-1.418-2.603 0-4.6084 2.0159-4.6084 4.7929Zm18.3408.4774c0 1.0753-.7075 2.231-2.0293 2.231-1.0182 0-1.5608-.7185-1.5608-2.1932V10.354h-2.5528v5.6744c0 1.8883.9537 3.727 3.5017 3.727 1.2023 0 2.2086-.9359 2.7153-1.6259h.0383v1.3683h2.4428V10.354h-2.5528v5.0127h-.0024Zm7.1945-5.0127h-2.5528v9.1438h2.5528V10.354Zm37.7366-.2576c-2.9063 0-5.0144 2.0159-5.0144 4.7929 0 2.8738 2.1557 4.8898 5.0144 4.8898 2.8588 0 5.0151-2.0372 5.0151-4.8898 0-2.777-2.1081-4.7929-5.0151-4.7929Zm0 7.5013c-1.6659 0-2.4237-1.4039-2.4237-2.7084 0-1.2881.7578-2.673 2.4237-2.673 1.666 0 2.4238 1.3849 2.4238 2.673 0 1.3045-.7578 2.7084-2.4238 2.7084Zm11.2224-7.5013c-2.9064 0-5.0145 2.0159-5.0145 4.7929 0 2.8738 2.1557 4.8898 5.0145 4.8898 2.8583 0 5.0153-2.0372 5.0153-4.8898-.003-2.777-2.111-4.7929-5.0153-4.7929Zm0 7.5013c-1.666 0-2.4238-1.4039-2.4238-2.7084 0-1.2881.7578-2.673 2.4238-2.673 1.6663 0 2.4233 1.3849 2.4233 2.673-.002 1.3045-.76 2.7084-2.4233 2.7084ZM119.151 11.98c.793 0 1.687.4679 2.024.9123l1.506-1.4275c-.696-.865-2.065-1.3684-3.511-1.3684-1.848 0-3.789.9193-3.789 2.9731 0 1.7631 1.398 2.2948 2.766 2.6186 1.441.3309 1.955.5743 1.955 1.1486 0 .8461-.971.9832-1.305.9832-.834 0-1.803-.4727-2.326-1.0848l-1.549 1.5527c.846.9288 2.297 1.4865 3.784 1.4865 2.495 0 3.978-1.1769 3.978-3.1172 0-1.8576-1.813-2.4816-3.103-2.7888-1.315-.3096-1.776-.4774-1.776-1.002-.005-.7256.925-.8863 1.346-.8863Zm6.234 6.3591c0-.2535-.219-.346-.442-.346h-.42v1.1801h.215v-.4935h.153l.28.4932h.261l-.322-.5166c.168-.0369.275-.1475.275-.3179v.0007Zm-.647.1702v-.3363h.195c.112 0 .238.0321.238.1612 0 .1427-.14.1749-.261.1749l-.172.0002Zm.2-.9678c-.14-.0006-.278.0261-.407.0785-.129.0523-.246.1293-.344.2264-.099.0973-.178.2128-.231.34-.053.1272-.081.2636-.081.4013 0 .5807.476 1.0371 1.063 1.0371s1.063-.4561 1.063-1.0371c0-.1377-.028-.2741-.082-.4014-.053-.1272-.131-.2428-.23-.34-.099-.0972-.216-.1741-.345-.2265-.129-.0523-.267-.0789-.406-.0783Zm0 1.9308c-.238-.0008-.465-.0943-.632-.26-.168-.1657-.262-.3902-.263-.6246.006-.2303.104-.4491.27-.6097.168-.1607.391-.2505.625-.2505.233 0 .456.0898.624.2505.167.1606.264.3794.271.6097-.001.2345-.096.4591-.263.6249-.169.1657-.396.259-.632.2597Z" fill="#fff"/></g></g><defs><clipPath id="a"><path fill="#fff" d="M0 0h126v28H0z"/></clipPath><clipPath id="b"><path fill="#fff" d="M0 0h126v24H0z"/></clipPath></defs></svg>